<?xml version="1.0" encoding="UTF-8" standalone="no"?>
<!-- Created with Inkscape (http://www.inkscape.org/) -->

<svg
   width="120mm"
   height="40mm"
   viewBox="0 0 120 40"
   version="1.1"
   id="svg5"
   xml:space="preserve"
   inkscape:version="1.2.2 (b0a84865, 2022-12-01)"
   sodipodi:docname="MyHubLogo.svg"
   inkscape:export-filename="MyHubLogo1024.png"
   inkscape:export-xdpi="260.09601"
   inkscape:export-ydpi="260.09601"
   xmlns:inkscape="http://www.inkscape.org/namespaces/inkscape"
   xmlns:sodipodi="http://sodipodi.sourceforge.net/DTD/sodipodi-0.dtd"
   xmlns="http://www.w3.org/2000/svg"
   xmlns:svg="http://www.w3.org/2000/svg"><sodipodi:namedview
     id="namedview7"
     pagecolor="#ffffff"
     bordercolor="#000000"
     borderopacity="0.25"
     inkscape:showpageshadow="2"
     inkscape:pageopacity="0.0"
     inkscape:pagecheckerboard="0"
     inkscape:deskcolor="#d1d1d1"
     inkscape:document-units="mm"
     showgrid="false"
     inkscape:zoom="1.4132045"
     inkscape:cx="221.48245"
     inkscape:cy="156.02837"
     inkscape:window-width="1512"
     inkscape:window-height="867"
     inkscape:window-x="0"
     inkscape:window-y="38"
     inkscape:window-maximized="1"
     inkscape:current-layer="layer1" /><defs
     id="defs2" /><g
     inkscape:label="Calque 1"
     inkscape:groupmode="layer"
     id="layer1"><ellipse
       style="opacity:0.99;fill:#000000;fill-opacity:1;stroke:#000000;stroke-width:0.264583;stroke-opacity:1"
       id="path1038-9-3-8"
       cx="18.507689"
       cy="20.785507"
       rx="1.6803393"
       ry="1.6486349" /><ellipse
       style="opacity:0.99;fill:#000000;fill-opacity:1;stroke:#000000;stroke-width:0.264583;stroke-opacity:1"
       id="path1038-9-3-8-9"
       cx="15.527465"
       cy="23.955954"
       rx="1.6803393"
       ry="1.6486349" /><path
       style="opacity:0.99;fill:#000000;stroke:#f9f9f9;stroke-width:0.239656"
       d=""
       id="path1316"
       transform="scale(0.26458333)" /><path
       style="opacity:0.99;fill:#000000;stroke:#f9f9f9;stroke-width:0.239656"
       d=""
       id="path1318"
       transform="scale(0.26458333)" /><path
       style="opacity:0.99;fill:#000000;fill-opacity:1;stroke:#000000;stroke-width:0.267807;stroke-opacity:1"
       d="m 19.967804,20.846221 1.967198,-1.20614"
       id="path1939" /><path
       style="opacity:0.99;fill:#000000;fill-opacity:1;stroke:#000000;stroke-width:0.264583;stroke-opacity:1"
       d="M 19.284442,19.327094 20.17217,18.74056"
       id="path1941" /><path
       style="opacity:0.99;fill:#000000;fill-opacity:1;stroke:#000000;stroke-width:0.266207;stroke-opacity:1"
       d="m 21.868376,19.75517 0.06338,-8.027545"
       id="path1943" /><path
       style="opacity:0.99;fill:#000000;fill-opacity:1;stroke:#000000;stroke-width:0.280401;stroke-opacity:1"
       d="M 24.348389,13.184694 21.951872,11.629409"
       id="path1945" /><path
       style="opacity:0.99;fill:#000000;fill-opacity:1;stroke:#000000;stroke-width:0.26351;stroke-opacity:1"
       d="m 24.198632,18.362776 0.06343,-5.249717"
       id="path1947" /><path
       style="opacity:0.99;fill:#000000;fill-opacity:1;stroke:#000000;stroke-width:0.303706;stroke-opacity:1"
       d="m 24.271276,18.223182 1.551998,-0.668193"
       id="path1951" /><path
       style="opacity:0.99;fill:#000000;fill-opacity:1;stroke:#000000;stroke-width:0.264583;stroke-opacity:1"
       d="M 20.108762,18.756412 20.188022,8.5317036"
       id="path1953" /><path
       style="opacity:0.99;fill:#000000;fill-opacity:1;stroke:#000000;stroke-width:0.267238;stroke-opacity:1"
       d="m 20.251768,8.6493666 5.658878,3.2876314"
       id="path1955" /><path
       style="opacity:0.99;fill:#000000;fill-opacity:1;stroke:#000000;stroke-width:0.268414;stroke-opacity:1"
       d="m 25.763433,17.697555 0.07915,-5.8817"
       id="path1957" /><path
       style="opacity:0.99;fill:#000000;fill-opacity:1;stroke:#000000;stroke-width:0.0233861;stroke-opacity:1"
       d="m 20.255702,20.289193 c -0.09159,-0.301527 -0.26873,-0.593942 -0.47498,-0.784058 l -0.105985,-0.09769 0.05468,-0.03583 c 0.03008,-0.01971 0.06145,-0.05716 0.06972,-0.08322 0.0083,-0.02606 0.03409,-0.0474 0.05737,-0.0474 0.02328,0 0.05458,-0.01476 0.06954,-0.03279 0.01498,-0.01804 0.05213,-0.03904 0.08259,-0.04668 0.03682,-0.0092 0.07292,-0.05116 0.107717,-0.125074 0.02879,-0.06114 0.07395,-0.128595 0.100367,-0.149891 0.04072,-0.03282 0.04332,-0.0444 0.01709,-0.076 -0.02056,-0.02479 -0.02215,-0.03729 -0.0047,-0.03729 0.01445,0 0.02625,-0.02381 0.02625,-0.05292 0,-0.03241 0.02037,-0.06187 0.05251,-0.076 0.130058,-0.05717 0.121888,0.243136 0.134575,-4.945856 l 0.01169,-4.7824564 0.05079,0.108754 c 0.04713,0.100909 0.05944,0.110609 0.170701,0.134469 0.06595,0.01416 0.14618,0.02572 0.178287,0.02572 0.06399,0 0.173183,0.09434 0.173183,0.149619 0,0.0571 0.09701,0.107627 0.206648,0.107627 0.130098,0 0.261725,0.07305 0.307845,0.170855 0.02924,0.06201 0.0526,0.07722 0.140316,0.09145 0.17865,0.02896 0.205484,0.03965 0.202063,0.08055 -0.0043,0.05141 0.16153,0.166309 0.26566,0.18406 0.136295,0.02323 0.18838,0.05448 0.214172,0.1284634 0.03022,0.08669 0.06972,0.10899 0.230981,0.130381 0.165159,0.02191 0.270378,0.08497 0.287891,0.17253 0.01389,0.06951 0.03285,0.07799 0.225785,0.100949 0.106055,0.01262 0.193857,0.07716 0.288221,0.211841 0.01947,0.02779 0.07053,0.04783 0.142584,0.05595 0.09905,0.01116 0.115908,0.0214 0.143388,0.08718 0.04324,0.103486 0.07847,0.126839 0.235847,0.15635 0.19793,0.03712 0.265721,0.06607 0.265721,0.113488 0,0.08674 0.07966,0.146016 0.222221,0.165362 0.173675,0.02357 0.278627,0.08003 0.318987,0.171606 0.02744,0.06226 0.04922,0.07527 0.160374,0.09578 0.162883,0.03006 0.321721,0.113593 0.355037,0.186716 0.01971,0.04329 0.05514,0.06264 0.151074,0.08256 0.121579,0.02524 0.125312,0.02837 0.125312,0.104881 0,0.08426 0.06546,0.151678 0.147275,0.151678 0.03988,0 0.04228,0.0163 0.0302,0.204629 -0.0072,0.112546 -0.02564,1.317514 -0.04094,2.677708 -0.01834,1.630908 -0.03586,2.473076 -0.05143,2.473076 -0.01299,0 -0.04534,0.01987 -0.0719,0.04413 -0.04431,0.0405 -1.089347,0.50116 -1.1039,0.486608 -0.0035,-0.0035 -0.0078,-1.113554 -0.0096,-2.466777 l -0.0033,-2.460402 -0.138107,-0.08524 c -0.09882,-0.061 -0.138107,-0.09945 -0.138107,-0.135183 0,-0.08455 -0.0633,-0.148619 -0.163574,-0.165561 -0.08325,-0.01407 -0.09367,-0.02312 -0.09367,-0.08134 0,-0.111617 -0.06792,-0.168473 -0.227277,-0.190267 -0.142475,-0.0195 -0.22897,-0.07673 -0.301191,-0.199337 -0.01849,-0.03139 -0.06974,-0.04958 -0.183248,-0.06505 -0.145327,-0.01982 -0.166253,-0.0302 -0.269128,-0.133618 -0.09745,-0.09797 -0.128847,-0.114848 -0.248473,-0.133607 -0.07531,-0.0118 -0.140671,-0.03271 -0.145251,-0.04645 -0.02405,-0.07216 -0.109106,-0.14405 -0.187468,-0.158451 -0.04767,-0.0088 -0.132149,-0.047 -0.187717,-0.08498 -0.05557,-0.03797 -0.104343,-0.0654 -0.108386,-0.06094 -0.004,0.0044 -0.02698,0.04076 -0.05098,0.08068 -0.024,0.03992 -0.04889,0.07168 -0.05532,0.07058 -0.0064,-0.0011 -0.03723,0.0159 -0.06845,0.03776 l -0.05675,0.03975 -0.01802,2.204888 c -0.0099,1.212689 -0.02527,2.983643 -0.03411,3.935457 l -0.01611,1.730571 -0.685808,0.420643 c -0.377196,0.231354 -0.695571,0.423899 -0.707504,0.427876 -0.01193,0.004 -0.04493,-0.06929 -0.07334,-0.162806 z"
       id="path2821" /><path
       style="opacity:0.99;fill:#000000;fill-opacity:1;stroke:#000000;stroke-width:0.0233861;stroke-opacity:1"
       d="m 18.239563,22.538098 c -0.986753,-0.155977 -1.671082,-1.079068 -1.505804,-2.031177 0.138221,-0.79624 0.75837,-1.37768 1.575337,-1.477015 0.253539,-0.03083 0.479562,-0.006 0.782793,0.08615 l 0.204608,0.06215 0.340151,-0.226624 c 0.187082,-0.124642 0.344006,-0.239429 0.348718,-0.255079 0.0047,-0.01566 0.02011,-1.785922 0.03423,-3.933934 0.01413,-2.148011 0.03243,-4.42377 0.04069,-5.0572414 l 0.01503,-1.151766 h 0.126335 c 0.124217,0 0.157949,0.01836 2.01353,1.096214 2.953398,1.7155344 3.641807,2.1166644 3.699198,2.1554784 l 0.05338,0.0361 -0.02648,1.928327 c -0.01455,1.06058 -0.03351,2.375585 -0.0421,2.922236 l -0.01561,0.993907 -0.777555,0.333253 c -0.67637,0.289883 -0.793787,0.333251 -0.902287,0.333256 l -0.124733,5e-6 0.0053,-0.286485 c 0.0029,-0.157565 0.01701,-1.311328 0.03129,-2.563916 0.02508,-2.198663 0.02447,-2.278848 -0.01701,-2.318374 -0.03489,-0.03322 -1.058902,-0.702249 -1.872949,-1.223662 l -0.169547,-0.108598 -7.94e-4,0.07585 c -5.29e-4,0.04172 -0.01537,1.816189 -0.03326,3.943267 -0.01789,2.127075 -0.04122,3.875982 -0.05187,3.886456 -0.01064,0.01048 -0.387683,0.244663 -0.837866,0.520417 l -0.818513,0.501375 -0.01511,0.166068 c -0.06632,0.729488 -0.610243,1.365938 -1.323197,1.548281 -0.208778,0.0534 -0.550839,0.07435 -0.735976,0.04509 z m 2.132732,-2.097439 c 0,-0.0081 -0.0069,-0.0079 -0.0154,5.29e-4 -0.0085,0.0085 -0.02951,0.0037 -0.04677,-0.01066 -0.02461,-0.02043 -0.03139,-0.01513 -0.03139,0.02442 0,0.04321 0.0067,0.04686 0.04677,0.02543 0.02572,-0.01376 0.04677,-0.03168 0.04677,-0.0398 z m 0.116933,-0.06709 c 0,-0.0064 -0.02103,-5.29e-4 -0.04677,0.01334 -0.02572,0.01376 -0.04677,0.03029 -0.04677,0.03672 0,0.0064 0.02103,5.29e-4 0.04677,-0.01333 0.02572,-0.01376 0.04677,-0.03029 0.04677,-0.03672 z m 1.256948,-1.769851 c -0.0039,-0.183288 -0.0072,-0.03332 -0.0072,0.333253 0,0.366578 0.0032,0.516541 0.0072,0.333251 0.0039,-0.183288 0.0039,-0.483214 0,-0.666504 z m -2.057921,0.828625 c -0.01127,-0.03688 0.138425,-0.180234 0.248666,-0.238125 0.124923,-0.0656 0.122775,-0.06339 0.210166,-0.216324 l 0.06348,-0.111082 -0.275772,0.178522 c -0.151675,0.09819 -0.305454,0.199409 -0.341733,0.224936 l -0.06596,0.04641 0.07765,0.06644 c 0.08568,0.07331 0.09201,0.07704 0.0835,0.04922 z m 0.540012,-0.629841 c -0.0078,-0.03704 0.03529,-0.113152 0.09118,-0.160914 0.04613,-0.03942 0.06267,-0.0834 0.07919,-0.210474 0.01148,-0.08835 0.02742,-2.266881 0.03541,-4.841165 l 0.01453,-4.6805234 -0.06225,-0.04079 c -0.03424,-0.02244 -0.066,-0.03674 -0.07057,-0.03178 -0.0046,0.0049 -0.02601,2.2346104 -0.04765,4.9547854 -0.02717,3.41644 -0.04699,4.950505 -0.06411,4.96108 -0.01363,0.0084 -0.01754,0.02701 -0.0087,0.04131 0.01828,0.02957 0.03855,0.03477 0.03298,0.0085 z m 4.259979,-0.833104 c 0.01929,-0.0083 0.0114,-0.01077 -0.01754,-0.0054 l -0.05262,0.0098 -0.0029,-2.447505 c -0.0016,-1.346126 -0.0109,-2.389621 -0.02074,-2.318879 -0.0098,0.07074 -0.02437,0.807405 -0.0323,1.637027 -0.0079,0.829619 -0.02127,1.890998 -0.02965,2.358617 l -0.01524,0.850218 0.06793,-0.03434 c 0.03736,-0.01889 0.08371,-0.04116 0.103007,-0.0495 z m 0.724969,-0.30697 c 0.03216,-0.01839 0.04794,-0.03342 0.03508,-0.03342 -0.01286,0 -0.0497,0.01503 -0.08185,0.03342 -0.03216,0.01839 -0.04794,0.03342 -0.03508,0.03342 0.01286,0 0.0497,-0.01503 0.08185,-0.03342 z m 0.264367,-0.114591 0.156583,-0.06782 -0.004,-0.16604 -0.004,-0.166042 -0.01349,0.150413 -0.01349,0.150413 -0.163703,0.09101 c -0.185197,0.102954 -0.179424,0.10406 0.0422,0.0081 z M 25.65164,16.30151 c -0.0041,-0.151858 -0.0074,-0.03406 -0.0074,0.261773 -1.6e-5,0.295833 0.0033,0.420082 0.0074,0.276106 0.0041,-0.143976 0.0041,-0.386022 2.4e-5,-0.537879 z m -3.882067,-0.257131 c -0.0039,-0.190508 -0.0072,-0.04119 -0.0072,0.33182 -1.1e-5,0.373009 0.0032,0.528878 0.0071,0.346376 0.0039,-0.182501 0.0039,-0.48769 2.1e-5,-0.678196 z m 3.905454,-1.590365 c -0.0041,-0.151858 -0.0074,-0.03406 -0.0074,0.261773 -1.6e-5,0.295834 0.0033,0.420082 0.0074,0.276106 0.0041,-0.143975 0.0041,-0.386022 2.4e-5,-0.537879 z m -3.883446,-0.492427 c -0.0059,-0.02252 -0.01069,-0.0041 -0.01069,0.04093 0,0.04502 0.0048,0.06343 0.01069,0.04093 0.0059,-0.02252 0.0059,-0.05934 0,-0.08185 z m 0.0013,-0.688707 c -0.0043,-0.119627 -0.0078,-0.02808 -0.0078,0.203446 -2.3e-5,0.231521 0.0034,0.329398 0.0077,0.217503 0.0043,-0.111895 0.0043,-0.301321 4.8e-5,-0.420949 z m 3.905488,-0.410438 c -0.0041,-0.138271 -0.0075,-0.02513 -0.0075,0.251399 0,0.27654 0.0034,0.38967 0.0075,0.251399 0.0041,-0.138268 0.0041,-0.364529 0,-0.502798 z m -1.510085,0.03357 c -0.02797,-0.02977 -0.05085,-0.06518 -0.05085,-0.0787 0,-0.05548 -0.09736,-0.14332 -0.174985,-0.157883 -0.06602,-0.01238 -0.08226,-0.02614 -0.08226,-0.06968 0,-0.0857 -0.0846,-0.173937 -0.182256,-0.190084 -0.146457,-0.02421 -0.223001,-0.06387 -0.324308,-0.168011 -0.05967,-0.06134 -0.118464,-0.100079 -0.152008,-0.100158 -0.111583,-2.64e-4 -0.227129,-0.04982 -0.332571,-0.142638 -0.07016,-0.06176 -0.151296,-0.106749 -0.229904,-0.127484 -0.06681,-0.01762 -0.124791,-0.02873 -0.128842,-0.02469 -0.004,0.004 0.326959,0.224441 0.735576,0.489761 0.408615,0.265319 0.790292,0.513371 0.848173,0.551225 0.129428,0.08465 0.138676,0.08693 0.07423,0.01834 z m 1.51584,-0.875473 c -1.4e-4,-0.05043 -0.02035,-0.07582 -0.09355,-0.117628 l -0.09336,-0.05332 v 0.05601 c 0,0.07278 0.08436,0.179248 0.142015,0.179248 0.03362,0 0.04503,-0.01632 0.0449,-0.06431 z m -3.256365,-0.279598 c -0.05321,-0.05321 -0.274754,-0.160515 -0.274754,-0.133077 0,0.01661 0.315191,0.213984 0.326166,0.204231 0.0057,-0.0051 -0.01738,-0.03713 -0.05141,-0.07115 z m 2.986434,0.06713 c -0.01222,-0.01074 -0.07307,-0.04853 -0.135223,-0.08396 l -0.113009,-0.06443 0.04121,0.06289 c 0.02265,0.03459 0.06299,0.07171 0.08962,0.08248 0.06424,0.02601 0.145926,0.0281 0.117406,0.003 z m -3.518434,-0.109087 c 0.03731,-0.04496 -7.94e-4,-0.04543 -0.05984,-7.94e-4 -0.03814,0.02885 -0.03931,0.03445 -0.0073,0.03508 0.02093,5.29e-4 0.05116,-0.01503 0.06717,-0.03434 z m 3.063576,-0.158819 c -0.07074,-0.04227 -0.180224,-0.10677 -0.243287,-0.143341 l -0.114665,-0.06649 0.07781,0.09682 c 0.05528,0.06879 0.10541,0.103786 0.17313,0.120864 0.05242,0.01323 0.116366,0.03347 0.142091,0.045 0.103992,0.04659 0.08601,0.0195 -0.03508,-0.05285 z m -0.467722,-0.269629 c -0.289346,-0.178922 -0.327404,-0.196308 -0.327404,-0.149572 0,0.07153 0.09915,0.143219 0.233294,0.168656 0.06909,0.0131 0.13081,0.02901 0.137149,0.03535 0.0064,0.0064 0.02294,0.01132 0.03687,0.01109 0.01394,-2.43e-4 -0.02201,-0.02973 -0.0799,-0.06552 z m -0.39754,-0.223608 c 0,-0.0083 -0.69369,-0.417782 -0.814674,-0.480867 -0.03733,-0.01947 -0.02294,0.0052 0.04549,0.0779 0.07913,0.08409 0.121412,0.109579 0.201739,0.121626 0.08805,0.0132 0.107754,0.02724 0.147468,0.10509 0.03536,0.0693 0.06589,0.09507 0.133517,0.112702 0.04822,0.01257 0.124513,0.03307 0.169532,0.04556 0.09684,0.02687 0.11693,0.02996 0.11693,0.01799 z m -0.94778,-0.560041 c -0.09863,-0.06649 -0.315069,-0.182065 -0.315069,-0.16824 0,0.008 0.01564,0.04479 0.03473,0.08173 0.02841,0.05495 0.05711,0.07124 0.157855,0.0896 0.172945,0.03153 0.17381,0.03151 0.122484,-0.0031 z m -0.410562,-0.235389 c -0.0054,-0.0051 -0.1676,-0.101081 -0.360535,-0.213331 C 22.20226,9.9259146 22.010201,9.8134536 21.9684,9.7882526 c -0.06387,-0.03851 -0.076,-0.04011 -0.076,-0.01003 0,0.0559 0.14847,0.155358 0.285157,0.191034 0.07037,0.01836 0.139287,0.0534 0.159178,0.08091 0.01929,0.02668 0.05102,0.06992 0.07051,0.09608 0.02215,0.02974 0.08788,0.05896 0.175395,0.07799 0.167521,0.03642 0.185772,0.03929 0.173096,0.02727 z M 21.822236,9.7133856 c 0,-0.0052 -0.04999,-0.03816 -0.111083,-0.07324 -0.0611,-0.03507 -0.147643,-0.08574 -0.192323,-0.112601 l -0.08124,-0.04884 0.07985,0.09936 c 0.04392,0.05465 0.106783,0.105241 0.139705,0.112427 0.03292,0.0072 0.07038,0.01656 0.08324,0.02088 0.03491,0.01164 0.08185,0.01281 0.08185,0.0021 z M 21.3779,9.4559646 c 0,-0.0075 -0.187695,-0.11933 -0.401614,-0.239313 -0.0087,-0.0049 0.0071,0.03359 0.03508,0.08543 0.05045,0.09357 0.104605,0.122999 0.272992,0.148357 0.03215,0.0048 0.06636,0.01024 0.076,0.01198 0.0097,0.0019 0.01754,-0.0011 0.01754,-0.0065 z m -0.444333,-0.257074 c 0,-0.0104 -0.44028,-0.271159 -0.457825,-0.271159 -0.01751,0 0.08067,0.182491 0.106916,0.19871 0.01318,0.0081 0.09488,0.02891 0.181578,0.04616 0.0867,0.01725 0.160266,0.03235 0.163483,0.03356 0.0032,0.0013 0.0058,-0.0021 0.0058,-0.0073 z"
       id="path2823" /><path
       style="opacity:0.99;fill:#000000;fill-opacity:1;stroke:#000000;stroke-width:0.0233861;stroke-opacity:1"
       d="m 18.255856,22.546726 c -0.589893,-0.09519 -1.10717,-0.46745 -1.357219,-0.976738 -0.145302,-0.295939 -0.184013,-0.461087 -0.184121,-0.785511 -1.12e-4,-0.323062 0.05499,-0.546656 0.203996,-0.82781 0.330557,-0.623718 1.072285,-1.013608 1.769676,-0.930232 0.122362,0.01463 0.309235,0.05348 0.415269,0.08634 l 0.192789,0.05974 0.336949,-0.226597 0.33695,-0.226597 0.01349,-0.353049 c 0.0074,-0.194175 0.02424,-2.05263 0.03736,-4.1299 0.01312,-2.077268 0.03063,-4.205696 0.03889,-4.7298364 l 0.015,-0.952984 h 0.126087 c 0.147278,0 -0.06873,-0.119414 2.824697,1.5616134 2.86132,1.662375 2.916192,1.694813 2.930604,1.73237 0.0131,0.0341 -0.02681,3.610262 -0.05694,5.103499 l -0.0149,0.738537 -0.750713,0.323773 c -0.670129,0.289018 -0.767892,0.324884 -0.910783,0.33414 l -0.160073,0.01037 0.01355,-0.277553 c 0.0074,-0.152651 0.01929,-0.956331 0.02633,-1.785951 0.007,-0.829622 0.01836,-1.856938 0.02516,-2.282923 0.01116,-0.698219 0.0086,-0.778311 -0.02614,-0.813019 -0.04271,-0.04271 -0.323062,-0.227968 -1.33981,-0.885359 -0.377092,-0.243818 -0.689192,-0.43963 -0.693555,-0.43514 -0.0044,0.0045 -0.01937,1.418344 -0.03335,3.141898 -0.014,1.723554 -0.03198,3.494638 -0.04,3.935741 l -0.01458,0.802005 -0.120042,0.07666 c -0.06602,0.04216 -0.435753,0.269563 -0.821624,0.505336 -0.385871,0.23577 -0.705299,0.431662 -0.709842,0.435316 -0.0046,0.0037 -0.01733,0.08756 -0.02843,0.186457 -0.03635,0.32416 -0.136591,0.580824 -0.337489,0.864161 -0.222015,0.313116 -0.574715,0.554414 -0.973024,0.665689 -0.170855,0.04773 -0.587338,0.07925 -0.734161,0.05556 z m 2.069669,-2.076582 c 0,-0.0057 -0.01053,-0.01683 -0.02339,-0.02476 -0.01286,-0.0079 -0.02339,-0.0033 -0.02339,0.01032 0,0.01363 0.01053,0.02477 0.02339,0.02477 0.01286,0 0.02339,-0.0046 0.02339,-0.01032 z m -0.568058,-1.143135 c 0.03752,-0.04273 0.114435,-0.10324 0.170934,-0.134472 0.09431,-0.05213 0.256932,-0.239845 0.230598,-0.266178 -0.0087,-0.0087 -0.559567,0.334211 -0.603123,0.375422 -0.01593,0.01508 0.07314,0.102918 0.104346,0.102918 0.01596,0 0.05973,-0.03496 0.09725,-0.07769 z m 0.640763,-1.275977 c 0.0086,-0.27804 0.02328,-2.448758 0.03266,-4.823817 l 0.01704,-4.3182894 -0.05,-0.02676 c -0.0275,-0.01471 -0.05982,-0.02069 -0.07182,-0.01328 -0.01283,0.0079 -0.02238,0.371994 -0.0232,0.883904 -0.0013,0.8554914 -0.03036,4.3710214 -0.06129,7.4286394 l -0.01572,1.553596 0.07835,-0.08924 0.07835,-0.08924 z m 4.01556,-0.950179 c 0.0041,-0.501457 -0.0011,-1.464239 -0.01114,-2.139511 l -0.01855,-1.22777 -0.01529,1.22777 c -0.0084,0.675272 -0.02225,1.641681 -0.03074,2.147572 -0.01471,0.876057 -0.01347,0.91942 0.02643,0.911741 0.03925,-0.0075 0.04235,-0.06543 0.04928,-0.919802 z m 1.217663,0.331279 c -0.0021,-0.03954 -0.005,-0.04155 -0.01342,-0.0094 -0.0059,0.02252 -0.01844,0.04093 -0.0279,0.04093 -0.0095,0 -0.03763,0.01564 -0.0626,0.03476 -0.04153,0.0318 -0.03893,0.0326 0.03061,0.0094 0.05601,-0.01868 0.07529,-0.03859 0.07329,-0.07568 z m -1.509678,-4.628158 c -0.02514,-0.04405 -0.08416,-0.09502 -0.140412,-0.121253 -0.07055,-0.0329 -0.100534,-0.06273 -0.109847,-0.109297 -0.01863,-0.09308 -0.09229,-0.150153 -0.235093,-0.182112 -0.09495,-0.02125 -0.158179,-0.05651 -0.258061,-0.143915 -0.0874,-0.07648 -0.153662,-0.115946 -0.19525,-0.116285 -0.07952,-5.29e-4 -0.239093,-0.07235 -0.285117,-0.128128 -0.03839,-0.04652 -0.248203,-0.1514 -0.303602,-0.151765 -0.04215,-2.64e-4 -0.02172,0.01376 0.841481,0.577722 0.379439,0.247909 0.698751,0.450807 0.709581,0.450889 0.01082,9.6e-5 1.64e-4,-0.03405 -0.02368,-0.07586 z m 1.570855,-0.789917 c 0,-0.03775 -0.0244,-0.06944 -0.07711,-0.10024 -0.09382,-0.05479 -0.113999,-0.04028 -0.07499,0.05391 0.04983,0.120298 0.152091,0.151451 0.152091,0.04633 z m -0.268939,-0.196236 c 0,-0.01341 -0.153254,-0.107146 -0.175172,-0.107146 -0.03024,0 0.04243,0.07438 0.09251,0.09468 0.05485,0.02222 0.08266,0.02643 0.08266,0.01246 z m -2.958547,-0.06071 c -0.01878,-0.03041 -0.19976,-0.123206 -0.213492,-0.109474 -0.01119,0.01119 0.177932,0.130773 0.209233,0.132284 0.0104,5.29e-4 0.01233,-0.0098 0.0043,-0.02281 z m -0.56044,-0.06531 c -0.0072,-0.0072 -0.02606,-1.6e-5 -0.04193,0.01595 -0.02294,0.0231 -0.02024,0.0258 0.0131,0.0131 0.02307,-0.0088 0.03604,-0.02185 0.02884,-0.02906 z m 2.957721,-0.214236 c -0.08361,-0.05096 -0.161872,-0.09302 -0.173923,-0.09347 -0.04679,-0.0019 0.117628,0.141869 0.184737,0.161388 0.141279,0.04108 0.138406,0.02304 -0.01082,-0.06791 z m -0.327406,-0.175106 c 0,-0.02008 -0.32894,-0.206087 -0.341765,-0.19326 -0.04784,0.04784 0.106633,0.150601 0.2833,0.18846 0.02572,0.0055 0.0494,0.01124 0.05262,0.01273 0.0032,0.0016 0.0058,-0.0021 0.0058,-0.0079 z m -0.467722,-0.279661 c 0,-0.0053 -0.07103,-0.04916 -0.157856,-0.09742 -0.08682,-0.04826 -0.183671,-0.104391 -0.215222,-0.124743 l -0.05737,-0.03701 0.04568,0.07776 c 0.02511,0.04277 0.05849,0.08847 0.07414,0.101573 0.04485,0.03752 0.310631,0.105831 0.310631,0.07984 z M 23.6101,10.754418 c -0.01222,-0.01146 -0.08536,-0.05533 -0.162534,-0.09753 l -0.140316,-0.07672 0.06928,0.07476 c 0.0381,0.04112 0.101245,0.08406 0.140316,0.09542 0.09737,0.02832 0.120206,0.02931 0.09325,0.0041 z m -0.582674,-0.341241 c -0.07673,-0.044 -0.143925,-0.07558 -0.149331,-0.07018 -0.02191,0.02191 0.06916,0.125508 0.118714,0.13502 0.160731,0.03085 0.16856,0.01426 0.03062,-0.06484 z m -0.468902,-0.271478 c -0.270037,-0.1581424 -0.259916,-0.1544274 -0.20302,-0.07453 0.06932,0.09735 0.100909,0.119512 0.205224,0.143973 0.16401,0.03846 0.163668,0.02769 -0.0021,-0.06945 z M 22.289956,9.9940216 c 0,-0.01863 -0.376534,-0.229831 -0.388459,-0.217906 -0.0067,0.0067 0.0173,0.03949 0.0533,0.07287 0.05169,0.04794 0.167095,0.101428 0.329308,0.1526544 0.0032,0.0011 0.0058,-0.0024 0.0058,-0.0076 z m -0.491109,-0.281165 c 0,-0.01699 -0.282747,-0.182769 -0.293452,-0.172061 -0.02222,0.02223 0.130966,0.141605 0.203869,0.15885 0.04284,0.01013 0.08052,0.0195 0.08374,0.02082 0.0032,0.0013 0.0058,-0.0021 0.0058,-0.0076 z m -0.46967,-0.27986 c -0.02484,-0.02352 -0.292449,-0.177748 -0.308517,-0.1778 -0.01,-3.2e-5 -0.0019,0.03124 0.01783,0.06951 0.02254,0.04358 0.06426,0.07773 0.111686,0.09143 0.07724,0.0223 0.196628,0.03355 0.178999,0.01685 z m -0.442386,-0.256556 c 0,-0.01011 -0.367689,-0.225325 -0.384956,-0.225325 -0.0065,0 0.0058,0.03697 0.02733,0.08216 0.02925,0.06134 0.06026,0.08755 0.122399,0.103463 0.176019,0.04507 0.23523,0.05506 0.23523,0.03971 z"
       id="path2825" /><path
       style="opacity:0.99;fill:#000000;fill-opacity:1;stroke:#000000;stroke-width:0.0233861;stroke-opacity:1"
       d="m 18.080461,22.513447 c -0.664138,-0.173413 -1.174109,-0.681781 -1.335616,-1.331407 -0.04088,-0.164415 -0.04137,-0.627669 -7.94e-4,-0.795126 0.01712,-0.07074 0.08413,-0.239125 0.148913,-0.374179 0.104661,-0.218189 0.14156,-0.26901 0.331113,-0.456028 0.239347,-0.236146 0.399237,-0.33981 0.674221,-0.437118 0.389845,-0.137954 0.755653,-0.141033 1.205855,-0.01016 l 0.19105,0.05554 0.333949,-0.225089 0.333949,-0.225089 0.0154,-0.57296 c 0.0085,-0.315127 0.02696,-2.314636 0.04109,-4.443355 0.01413,-2.128719 0.03234,-4.1599154 0.04049,-4.5137714 l 0.01482,-0.643374 0.14288,0.01252 c 0.128844,0.0113 0.186534,0.03757 0.587216,0.267565 0.601777,0.345416 4.802489,2.7882484 4.992929,2.9035274 l 0.152011,0.09202 0.0077,0.373646 c 0.0086,0.416825 -0.03444,4.117009 -0.05766,4.96158 l -0.0149,0.542142 -0.634058,0.273397 c -0.83662,0.360743 -0.902099,0.384582 -1.056333,0.384582 h -0.128881 l 0.01495,-0.871132 c 0.02593,-1.509909 0.04557,-3.92751 0.0334,-4.110104 l -0.0117,-0.175395 -0.257249,-0.17077 c -0.343746,-0.228195 -1.594064,-1.036869 -1.688922,-1.092357 -0.04141,-0.02421 -0.07927,-0.03933 -0.08413,-0.03357 -0.0049,0.0057 -0.02111,1.57324 -0.03612,3.483299 -0.015,1.910059 -0.03384,3.67869 -0.04188,3.93029 l -0.0146,0.457457 -0.06108,0.03593 c -0.187725,0.110419 -1.517378,0.932429 -1.550945,0.958816 -0.02671,0.02101 -0.048,0.09194 -0.06432,0.214376 -0.105473,0.791332 -0.692568,1.412642 -1.461564,1.546743 -0.275931,0.04812 -0.546047,0.0437 -0.761103,-0.01246 z m 1.828324,-3.316489 c 0.08929,-0.05323 0.229651,-0.198172 0.229651,-0.237159 0,-0.0231 -0.21268,0.100817 -0.454166,0.264602 l -0.138451,0.0939 0.05459,0.0442 c 0.0544,0.04405 0.05487,0.04393 0.138452,-0.03502 0.04613,-0.04357 0.122594,-0.102309 0.169928,-0.130525 z m 0.467286,-0.743622 c 0.01543,-0.106187 0.06138,-6.453021 0.0656,-9.0599774 l 7.93e-4,-0.481507 -0.05593,-0.02548 -0.05593,-0.02548 -0.01341,0.4953 c -0.0074,0.272415 -0.02445,2.0580754 -0.03789,3.9681324 -0.01344,1.910059 -0.03079,3.904308 -0.03854,4.431665 l -0.01408,0.958829 0.06482,-0.06269 c 0.04866,-0.04706 0.06975,-0.09662 0.08459,-0.198781 z M 24.389533,16.3222 c -0.0028,-0.922113 -0.0082,-1.518714 -0.01188,-1.32578 -0.02339,1.225299 -0.04322,2.929438 -0.0346,2.974528 0.0056,0.02938 0.01953,0.04766 0.03093,0.04062 0.0118,-0.0073 0.01849,-0.734861 0.01553,-1.689372 z m -0.274492,-3.510563 c -0.02873,-0.05368 -0.128024,-0.134768 -0.188542,-0.153977 -0.02387,-0.0076 -0.05545,-0.05029 -0.07018,-0.09492 -0.02867,-0.08686 -0.08954,-0.12891 -0.248534,-0.171683 -0.05336,-0.01437 -0.153744,-0.0728 -0.223067,-0.129868 -0.08388,-0.06905 -0.164272,-0.112334 -0.240327,-0.129376 -0.06285,-0.01408 -0.162425,-0.06063 -0.221266,-0.103421 -0.124227,-0.09035 -0.243675,-0.154228 -0.287064,-0.153522 -0.03733,5.29e-4 1.442399,0.977904 1.484677,0.980565 0.01011,5.3e-4 0.0075,-0.01908 -0.0057,-0.0438 z m 1.565897,-0.795617 c 0,-0.04169 -0.07908,-0.118255 -0.122135,-0.118255 -0.02985,0 -0.02069,0.05618 0.01823,0.111725 0.04489,0.06409 0.103913,0.0678 0.103913,0.0065 z m -0.337722,-0.247623 c -0.02498,-0.01889 -0.05654,-0.034 -0.07016,-0.03359 -0.01363,5.29e-4 -0.0043,0.01619 0.02064,0.03508 0.02498,0.01889 0.05654,0.034 0.07016,0.03359 0.01363,-5.29e-4 0.0043,-0.01619 -0.02064,-0.03508 z m -2.912944,-0.02183 c 0,-0.006 -0.02368,-0.02236 -0.05262,-0.03637 -0.05053,-0.02447 -0.05082,-0.02405 -0.0072,0.01087 0.04771,0.03823 0.05984,0.0434 0.05984,0.02551 z m 2.467232,-0.23721 c -0.07666,-0.05919 -0.175395,-0.105481 -0.175395,-0.08222 0,0.02875 0.142475,0.119134 0.187087,0.11869 0.02625,-2.62e-4 0.02331,-0.0094 -0.0117,-0.03647 z m -0.409258,-0.229618 c 0,-0.01924 -0.260151,-0.158616 -0.272669,-0.146098 -0.02421,0.02421 0.0218,0.06768 0.1177,0.111223 0.09252,0.04202 0.154969,0.05607 0.154969,0.03487 z m -0.489124,-0.289421 c -0.03106,-0.02183 -0.119317,-0.07532 -0.196117,-0.118851 l -0.139632,-0.07915 0.04272,0.07231 c 0.04264,0.07218 0.08974,0.09945 0.244277,0.141402 0.111358,0.03023 0.113255,0.02962 0.04875,-0.01572 z m -0.504783,-0.297556 c -0.08854,-0.05453 -0.128624,-0.06963 -0.128624,-0.04846 0,0.01945 0.153463,0.106733 0.187089,0.10641 0.01929,-1.85e-4 -0.007,-0.02627 -0.05847,-0.05795 z M 23.09657,10.47087 c -0.02125,-0.03439 -0.198575,-0.121285 -0.198575,-0.09731 0,0.03438 0.07885,0.09283 0.140316,0.104018 0.03215,0.0058 0.06172,0.01206 0.06569,0.01384 0.004,0.0019 5.29e-4,-0.0075 -0.0074,-0.02053 z m -0.455824,-0.266888 c 0,-0.01233 -0.245346,-0.153726 -0.266761,-0.153726 -0.04103,0 0.04545,0.101206 0.110746,0.129612 0.07205,0.03134 0.156015,0.04432 0.156015,0.0241 z M 22.243183,9.9704156 c 0,-0.01765 -0.30733,-0.181891 -0.318823,-0.170397 -0.01746,0.01746 0.119621,0.107963 0.218427,0.144227 0.108894,0.03996 0.100396,0.03775 0.100396,0.02617 z m -0.491107,-0.280414 c 0,-0.01754 -0.214029,-0.135088 -0.225351,-0.123767 -0.01217,0.01217 0.09831,0.09499 0.155192,0.116364 0.04464,0.01677 0.07016,0.01947 0.07016,0.0074 z M 21.30774,9.4322476 c 0,-0.01752 -0.259577,-0.159192 -0.270912,-0.147855 -0.02532,0.02532 0.07966,0.116311 0.154543,0.133924 0.104445,0.02455 0.116369,0.02598 0.116369,0.01392 z m -0.469669,-0.279956 c -0.0352,-0.0336 -0.307811,-0.179845 -0.317384,-0.170272 -0.0263,0.0263 0.07233,0.134265 0.140801,0.154111 0.07542,0.02185 0.193915,0.0327 0.176583,0.01617 z"
       id="path2827" /><path
       style="opacity:0.99;fill:#000000;fill-opacity:1;stroke:#000000;stroke-width:0.0233861;stroke-opacity:1"
       d="m 13.796425,24.49912 c -0.162999,-0.666771 0.04198,-1.357055 0.536838,-1.80785 0.125246,-0.114087 0.532621,-0.334654 0.699246,-0.378524 0.07038,-0.01855 0.250381,-0.0396 0.399997,-0.04677 0.241714,-0.01161 0.303966,-0.0033 0.558591,0.07465 0.321516,0.09839 0.488704,0.189816 0.704991,0.385533 0.30663,0.277468 0.483162,0.597876 0.581934,1.056192 l 0.04192,0.194495 0.356739,0.186881 0.356739,0.186882 0.511459,-0.258707 c 0.281316,-0.142262 2.049437,-1.07614 3.929191,-2.075224 1.879752,-0.999085 3.675635,-1.948239 3.990862,-2.109212 l 0.573141,-0.292677 0.05688,0.131669 c 0.05128,0.118739 0.05558,0.181982 0.0436,0.643827 -0.01797,0.69363 -0.17132,5.550574 -0.182262,5.772917 l -0.0087,0.177479 -0.325108,0.184323 c -0.362673,0.205632 -3.638882,1.926003 -4.393045,2.306893 l -0.484106,0.244502 -0.541848,-0.42799 c -0.714989,-0.564717 -0.767079,-0.611004 -0.840367,-0.746712 l -0.06124,-0.113402 0.773604,-0.400787 c 1.340876,-0.694658 3.477432,-1.826165 3.632312,-1.923637 l 0.148774,-0.09363 0.02802,-0.307496 c 0.03745,-0.410894 0.154868,-1.895298 0.158616,-2.005129 0.0016,-0.04794 -0.0031,-0.08844 -0.0104,-0.08998 -0.0074,-0.0016 -1.394309,0.728992 -3.082084,1.623401 -1.687771,0.894416 -3.252924,1.718252 -3.478125,1.830732 l -0.409455,0.204518 -0.06063,-0.03667 c -0.186359,-0.112708 -1.541458,-0.892057 -1.580626,-0.909055 -0.03118,-0.01351 -0.103713,0.0015 -0.219191,0.04527 -0.746404,0.283218 -1.572063,0.06186 -2.055466,-0.551038 -0.173457,-0.219925 -0.29792,-0.459697 -0.350696,-0.675608 z m 3.786922,0.03281 c 0.08927,0.05327 0.283495,0.1079 0.3178,0.08938 0.02032,-0.01097 -0.189769,-0.13923 -0.44863,-0.273883 l -0.14841,-0.07721 -0.01295,0.06904 c -0.01291,0.06879 -0.01258,0.06915 0.0966,0.105182 0.06026,0.01988 0.148275,0.05926 0.195593,0.08749 z m 0.876349,0.05781 c 0.100766,-0.03688 5.707117,-3.012317 8.002959,-4.247369 l 0.42405,-0.228103 -0.0041,-0.06132 -0.0041,-0.06132 -0.442182,0.223556 c -0.243212,0.122933 -1.822498,0.956435 -3.509524,1.852224 -1.687029,0.89579 -3.449994,1.828145 -3.917693,2.071913 l -0.850355,0.443224 0.08596,0.02725 c 0.06453,0.02045 0.118167,0.01546 0.215101,-0.02003 z m 3.782271,2.51874 c 0.810028,-0.44063 1.332406,-0.728872 1.160896,-0.640432 -1.089243,0.561652 -2.598122,1.353972 -2.633699,1.382981 -0.02321,0.0189 -0.03265,0.03983 -0.02105,0.04651 0.01203,0.007 0.655383,-0.332918 1.493841,-0.789085 z m 2.958479,-1.90966 c 0.03358,-0.05079 0.05774,-0.176686 0.04589,-0.239063 -0.0046,-0.0246 0.0179,-0.07269 0.05017,-0.106854 0.0628,-0.0665 0.07088,-0.14004 0.03296,-0.300263 -0.01272,-0.05378 -0.009,-0.16987 0.0083,-0.257985 0.0209,-0.106616 0.02078,-0.197919 -3.82e-4,-0.272936 -0.01749,-0.06198 -0.02384,-0.171726 -0.01409,-0.243834 0.02047,-0.152238 0.01992,-0.287694 -0.0013,-0.325536 -0.0182,-0.03259 -0.175053,1.73383 -0.157306,1.772295 0.0043,0.0091 0.02035,-0.0025 0.03583,-0.02583 z m 1.444132,0.999757 c 0.03668,-0.01981 0.06648,-0.125774 0.04602,-0.163656 -0.01418,-0.02626 -0.05926,0.0085 -0.08965,0.06913 -0.03506,0.06995 -0.01028,0.123648 0.04366,0.09452 z m 0.05741,-0.414823 c 0.0047,-0.03095 0.003,-0.0659 -0.0038,-0.07769 -0.0069,-0.01174 -0.01628,0.0039 -0.02106,0.03483 -0.0047,0.03095 -0.003,0.0659 0.0038,0.07769 0.0069,0.01174 0.01628,-0.0039 0.02106,-0.03483 z m -1.364962,-2.573447 c 0.0053,-0.0028 0.0084,-0.03146 0.007,-0.06358 -0.0025,-0.05609 -0.003,-0.05615 -0.01299,-0.0012 -0.01096,0.06015 -0.0097,0.07327 0.0059,0.06477 z m 1.38109,2.058175 c 0.01565,-0.09558 0.0095,-0.204449 -0.01099,-0.193397 -0.02529,0.01366 -0.03712,0.181973 -0.01554,0.221015 0.0127,0.02298 0.01935,0.01604 0.02654,-0.02762 z m 0.0076,-0.46921 c 0.01693,-0.0091 0.01595,-0.304276 -10e-4,-0.309341 -0.0328,-0.0098 -0.04919,0.05134 -0.04194,0.156413 0.007,0.101374 0.0243,0.163 0.04295,0.152926 z m 0.02224,-0.567904 c 0.0045,-0.03771 0.0096,-0.140774 0.01138,-0.229036 l 0.0033,-0.160469 -0.04333,0.07195 c -0.04325,0.07182 -0.04487,0.126218 -0.0083,0.282127 0.02631,0.112347 0.02775,0.113726 0.037,0.03542 z m 0.02196,-0.585545 c 0.0059,-0.103807 1.9e-4,-0.146263 -0.01848,-0.136201 -0.01711,0.0093 -0.02099,0.185748 -0.0047,0.215181 0.0093,0.01688 0.01979,-0.01864 0.02321,-0.07897 z m 0.0062,-0.455431 c 0.02016,-0.03504 0.01236,-0.232356 -0.0087,-0.220963 -0.03025,0.01634 -0.04422,0.113494 -0.02486,0.172891 0.01018,0.03105 0.01872,0.06004 0.01904,0.06438 2.28e-4,0.0044 0.0069,-0.0031 0.01455,-0.01627 z m 0.01824,-0.527894 c 0.01085,-0.0058 0.01868,-0.288924 0.0085,-0.307768 -0.01949,-0.0361 -0.06745,0.08808 -0.06142,0.159035 0.0067,0.07828 0.03514,0.158334 0.05293,0.148726 z m 0.0166,-0.460798 c 0.01552,-0.0084 0.01401,-0.356846 -0.0016,-0.361497 -0.02366,-0.0071 -0.03815,0.156554 -0.02311,0.260725 0.01658,0.114808 0.01449,0.106275 0.02468,0.100772 z m 0.01337,-0.565365 c 0.01544,-0.0083 0.01716,-0.252513 0.0018,-0.257096 -0.01649,-0.0049 -0.03687,0.13164 -0.02864,0.191846 0.0065,0.04725 0.01621,0.07099 0.02683,0.06525 z m 0.01566,-0.513446 c 0.01542,-0.0083 0.01673,-0.304044 0.0014,-0.308629 -0.03431,-0.01024 -0.06448,0.12536 -0.0444,0.199618 0.02803,0.103564 0.03244,0.114737 0.04305,0.109007 z m 0.02316,-0.546287 c 0.01284,-0.04694 0.01198,-0.356298 -9.88e-4,-0.360172 -0.03564,-0.01065 -0.08377,0.127441 -0.06869,0.197119 0.0166,0.07675 0.06337,0.186163 0.06968,0.163057 z"
       id="path2827-0"
       inkscape:transform-center-x="0.34585159"
       inkscape:transform-center-y="-1.9133679" /><path
       style="opacity:0.99;fill:#000000;fill-opacity:1;stroke:#000000;stroke-width:0.0233861;stroke-opacity:1"
       d="m 9.9746693,21.854592 c 0.4934177,-0.47717 1.1928127,-0.648506 1.8317097,-0.448727 0.161695,0.05057 0.55768,0.290983 0.679632,0.412704 0.05153,0.05141 0.160527,0.196189 0.242211,0.321744 0.131989,0.202828 0.156227,0.260767 0.217408,0.519933 0.07728,0.32723 0.08271,0.517707 0.02287,0.803197 -0.08484,0.404739 -0.272388,0.718822 -0.618241,1.035357 l -0.146768,0.134332 0.0187,0.402291 0.0187,0.402292 0.481431,0.311035 c 0.264772,0.171095 1.963214,1.226403 3.77428,2.345189 1.811066,1.118784 3.536705,2.190353 3.834742,2.381284 l 0.541884,0.347148 -0.08497,0.115545 c -0.07664,0.104188 -0.129071,0.139811 -0.533855,0.362509 -0.607922,0.33448 -4.878602,2.652823 -5.076085,2.755566 l -0.157619,0.08205 -0.323182,-0.18768 c -0.360534,-0.20936 -3.498962,-2.169842 -4.208347,-2.628767 l -0.455366,-0.294587 0.0961,-0.683768 c 0.126784,-0.902242 0.140463,-0.97057 0.220647,-1.10232 l 0.06701,-0.110093 0.736372,0.465669 c 1.276327,0.807148 3.331302,2.080829 3.493605,2.165363 l 0.155906,0.0812 0.279619,-0.130967 c 0.373647,-0.174998 1.714473,-0.822632 1.811188,-0.874815 0.0422,-0.02281 0.07479,-0.0473 0.07244,-0.05438 -0.0024,-0.0072 -1.33293,-0.835956 -2.956755,-1.841812 -1.623828,-1.005849 -3.124849,-1.941448 -3.335593,-2.079122 l -0.383178,-0.250312 0.0011,-0.07085 c 0.0032,-0.217766 -0.0076,-1.780955 -0.01271,-1.823348 -0.004,-0.03374 -0.05362,-0.08879 -0.149684,-0.166399 -0.6211437,-0.501509 -0.846647,-1.326046 -0.5614107,-2.052657 0.102351,-0.260727 0.246558,-0.489169 0.406338,-0.643679 z m 1.8824957,3.286041 c -9.27e-4,0.103951 0.04989,0.299204 0.08319,0.319476 0.01973,0.01201 0.02445,-0.234093 0.01009,-0.525528 l -0.0083,-0.167089 -0.06614,0.02365 c -0.0659,0.02357 -0.06605,0.02403 -0.04207,0.136474 0.01324,0.06206 0.02366,0.157917 0.02315,0.213014 z m 0.392281,0.785776 c 0.08269,0.06839 5.480444,3.407341 7.705188,4.766296 l 0.410905,0.251011 0.05087,-0.03448 0.05087,-0.03448 -0.416128,-0.268961 c -0.228849,-0.14795 -1.745346,-1.090873 -3.369984,-2.095387 -1.624641,-1.004515 -3.319166,-2.05614 -3.765619,-2.336932 l -0.81174,-0.51052 0.01985,0.08797 c 0.01491,0.06603 0.04627,0.109822 0.12583,0.175603 z m -0.266109,4.536388 c 0.789151,0.477013 1.301592,0.782571 1.138695,0.679122 -1.034525,-0.657011 -2.479941,-1.559927 -2.522938,-1.576006 -0.02803,-0.0105 -0.05086,-0.0081 -0.05078,0.0053 2.7e-5,0.01392 0.618125,0.397847 1.435036,0.891565 z m 3.141531,1.590653 c 0.0608,0.0034 0.181679,-0.0393 0.229554,-0.08101 0.01892,-0.01639 0.07179,-0.02123 0.117569,-0.01057 0.0891,0.02067 0.156671,-0.0094 0.275867,-0.123052 0.04002,-0.03811 0.142118,-0.09348 0.226922,-0.123009 0.102594,-0.03575 0.181361,-0.08192 0.23545,-0.13805 0.04469,-0.04638 0.136233,-0.107232 0.203407,-0.135199 0.141766,-0.05914 0.258436,-0.127967 0.2804,-0.165383 0.01895,-0.03215 -1.585253,0.72373 -1.609507,0.758461 -0.0057,0.0083 0.01243,0.01631 0.04038,0.0179 z m -0.134466,1.751271 c 0.03561,0.02168 0.142133,-0.0061 0.164516,-0.04285 0.01552,-0.0255 -0.03724,-0.04688 -0.10492,-0.04252 -0.07809,0.005 -0.11194,0.05352 -0.05958,0.08539 z m 0.387111,-0.159747 c 0.02909,-0.01156 0.05841,-0.03066 0.06516,-0.04248 0.0066,-0.01188 -0.01158,-0.01209 -0.0407,-6.1e-4 -0.02909,0.01156 -0.0584,0.03066 -0.06516,0.04248 -0.0066,0.01188 0.01158,0.01209 0.04069,6.11e-4 z m 1.533078,-2.476978 c 0.0051,0.0032 0.0314,-0.0086 0.05842,-0.02603 0.04717,-0.03046 0.04697,-0.03092 -0.0056,-0.01182 -0.05746,0.02089 -0.06815,0.0286 -0.05295,0.03778 z M 15.830517,33.3989 c 0.09042,-0.03472 0.181307,-0.09496 0.161427,-0.107074 -0.02455,-0.01494 -0.175839,0.05977 -0.198658,0.09811 -0.01343,0.02256 -0.0041,0.02479 0.03724,0.009 z m 0.408934,-0.230194 c 0.0164,0.01002 0.270748,-0.139763 0.266568,-0.156953 -0.0081,-0.03326 -0.06915,-0.01656 -0.156203,0.04272 -0.08399,0.0572 -0.128466,0.103228 -0.110358,0.114246 z m 0.501528,-0.267355 c 0.03483,-0.01515 0.126384,-0.06275 0.203484,-0.105743 l 0.140208,-0.07812 -0.08398,-0.0011 c -0.08383,-0.0011 -0.131612,0.02494 -0.247766,0.135191 -0.08372,0.0794 -0.08418,0.08134 -0.01191,0.04981 z m 0.516619,-0.276498 c 0.0926,-0.04729 0.126374,-0.07364 0.108266,-0.08468 -0.01666,-0.01008 -0.170959,0.07561 -0.188151,0.104519 -0.0099,0.01655 0.02607,0.0076 0.0799,-0.01981 z m 0.39633,-0.22445 c 0.04042,-2.76e-4 0.206844,-0.106572 0.186381,-0.119006 -0.02937,-0.01787 -0.120299,0.01909 -0.161811,0.06577 -0.02167,0.02446 -0.0424,0.04646 -0.04598,0.04893 -0.0036,0.0024 0.0062,0.0044 0.02139,0.0043 z m 0.464968,-0.25062 c 0.01048,0.0065 0.258871,-0.129659 0.270004,-0.147956 0.02133,-0.03505 -0.11008,-0.01379 -0.168297,0.02722 -0.06421,0.04528 -0.118968,0.110231 -0.101696,0.120743 z m 0.406211,-0.21818 c 0.01508,0.0092 0.315156,-0.167963 0.311296,-0.183786 -0.0058,-0.02401 -0.154413,0.04606 -0.236762,0.111605 -0.09075,0.07224 -0.08444,0.06613 -0.07455,0.07216 z m 0.494861,-0.273731 c 0.01495,0.0092 0.226669,-0.112598 0.222875,-0.128172 -0.0041,-0.01672 -0.132257,0.03459 -0.180084,0.07207 -0.03751,0.02946 -0.05311,0.04981 -0.04279,0.05609 z m 0.451192,-0.245557 c 0.01494,0.0092 0.270942,-0.138972 0.267165,-0.15452 -0.0085,-0.03479 -0.140767,0.0076 -0.194746,0.06239 -0.07527,0.07645 -0.08269,0.0859 -0.07239,0.09217 z m 0.483329,-0.255652 c 0.04701,-0.0126 0.313659,-0.16944 0.310461,-0.18259 -0.0088,-0.03615 -0.152297,-0.008 -0.204845,0.04016 -0.05788,0.05306 -0.12875,0.148646 -0.105618,0.142434 z"
       id="path2827-0-8"
       inkscape:transform-center-x="-3.1763549"
       inkscape:transform-center-y="-1.0484045" /><path
       style="opacity:0.99;fill:#000000;fill-opacity:1;stroke:#000000;stroke-width:0.0233861;stroke-opacity:1"
       d="m 10.249247,17.148519 c 0.66155,0.183041 1.164085,0.698762 1.316135,1.350668 0.03847,0.164992 0.03225,0.628202 -0.0108,0.795051 -0.01815,0.0705 -0.0876,0.237878 -0.154338,0.371975 -0.1078,0.216656 -0.145426,0.266941 -0.337702,0.45117 -0.242757,0.232639 -0.404133,0.333972 -0.680502,0.427276 -0.3918107,0.132273 -0.7576217,0.13004 -1.205874,-0.0074 l -0.190228,-0.0583 -0.337162,0.22025 -0.337162,0.220249 -0.02377,0.572674 c -0.01312,0.314969 -0.06058,2.314001 -0.105638,4.44229 -0.04507,2.128287 -0.09276,4.159005 -0.106052,4.512706 l -0.02418,0.64309 -0.142681,-0.01458 C 7.780627,31.062418 7.723324,31.035358 7.326027,30.799569 6.729328,30.445454 2.564547,27.941853 2.375804,27.823819 l -0.150682,-0.09418 -0.0023,-0.373718 c -0.0025,-0.416905 0.09425,-4.116074 0.129695,-4.96022 l 0.02277,-0.541868 0.637961,-0.264158 C 3.855037,21.241096 3.920855,21.218211 4.075071,21.22045 l 0.128868,0.0019 -0.02755,0.870822 c -0.04782,1.509374 -0.10264,3.926434 -0.0931,4.109185 l 0.0091,0.175546 0.254741,0.174488 c 0.340396,0.233169 1.578836,1.059916 1.672878,1.116774 0.04106,0.02479 0.07871,0.04044 0.08362,0.03483 0.0049,-0.0057 0.04395,-1.572766 0.08669,-3.482406 0.04274,-1.90964 0.08723,-3.677812 0.09901,-3.929266 l 0.02129,-0.457197 0.06161,-0.035 c 0.189271,-0.107744 1.530777,-0.910265 1.564713,-0.93618 0.02705,-0.02057 0.0493,-0.09126 0.06743,-0.213418 0.116954,-0.789717 0.713024,-1.402428 1.4838763,-1.52535 0.276603,-0.04411 0.5466247,-0.03576 0.7608417,0.02352 z m -1.87631,3.289576 c -0.09004,0.05195 -0.232506,0.194816 -0.233076,0.233797 -3.38e-4,0.0231 0.214122,-0.09772 0.457962,-0.257976 l 0.139767,-0.09194 -0.05394,-0.045 c -0.05375,-0.04482 -0.05423,-0.04472 -0.138946,0.033 -0.04676,0.0429 -0.12407,0.10052 -0.171805,0.128039 z m -0.47804,0.736754 c -0.01698,0.105957 -0.15511,6.451448 -0.197201,9.058069 l -0.0078,0.481444 0.05552,0.02634 0.05552,0.02634 0.02057,-0.495055 c 0.01132,-0.272273 0.05435,-2.057494 0.09549,-3.967156 0.04114,-1.909664 0.0875,-3.903449 0.102916,-4.430637 l 0.02802,-0.958523 -0.06573,0.06175 c -0.04933,0.04635 -0.07116,0.0956 -0.08747,0.197533 z M 3.8509,23.247461 c -0.0106,0.922056 -0.01386,1.518672 -0.0074,1.325812 0.04118,-1.224831 0.08577,-2.928502 0.07778,-2.973711 -0.0051,-0.02948 -0.01883,-0.04794 -0.03033,-0.04107 -0.01198,0.0071 -0.02916,0.734513 -0.04005,1.688969 z m 0.223467,3.514179 c 0.02792,0.05412 0.126055,0.136609 0.186289,0.156697 0.02372,0.008 0.05472,0.05109 0.06877,0.09594 0.0274,0.08727 0.0876,0.130233 0.246017,0.175272 0.05315,0.01514 0.152665,0.07503 0.221143,0.133117 0.08287,0.07026 0.162618,0.114709 0.238431,0.132834 0.06265,0.01498 0.161531,0.06297 0.219716,0.10667 0.122898,0.09215 0.241407,0.157756 0.284794,0.157697 0.03732,1.5e-5 -1.428042,-0.998753 -1.470277,-1.002029 -0.01004,-7e-4 -0.0078,0.01899 0.0051,0.04387 z M 2.49708,27.534426 c -6.12e-4,0.04169 0.07738,0.119379 0.120404,0.120018 0.02985,4.34e-4 0.0215,-0.05587 -0.0166,-0.111985 -0.04393,-0.06475 -0.102919,-0.0693 -0.103812,-0.008 z m 0.334085,0.252509 c 0.02472,0.0192 0.05606,0.03478 0.06967,0.03459 0.01358,-3.41e-4 0.0045,-0.01611 -0.02012,-0.03538 -0.02472,-0.0192 -0.05605,-0.03477 -0.06967,-0.0346 -0.01358,3.41e-4 -0.0045,0.01612 0.02013,0.03537 z m 2.912326,0.06414 c -1.7e-4,0.006 0.02334,0.02269 0.05207,0.03713 0.05019,0.02519 0.05048,0.02478 0.0074,-0.01082 -0.04716,-0.03891 -0.05923,-0.04421 -0.05943,-0.02646 z m -2.470416,0.201344 c 0.0758,0.06029 0.173827,0.108046 0.174178,0.08477 4.16e-4,-0.02874 -0.14073,-0.12119 -0.185346,-0.121398 -0.02626,-1.24e-4 -0.02344,0.009 0.01114,0.03666 z m 0.405863,0.235567 c -3.12e-4,0.01922 0.257819,0.162381 0.27051,0.150056 0.02455,-0.02385 -0.02082,-0.06799 -0.116074,-0.112921 -0.09191,-0.04334 -0.154139,-0.05831 -0.154444,-0.03712 z m 0.484869,0.296497 c 0.03073,0.02233 0.118203,0.07706 0.194372,0.121684 l 0.138462,0.08118 -0.04166,-0.07293 C 4.413391,28.641617 4.366711,28.613669 4.212763,28.56952 4.101862,28.53767 4.099957,28.53826 4.163803,28.58453 Z m 0.500406,0.304862 c 0.08774,0.0558 0.127581,0.07153 0.127906,0.05032 2.32e-4,-0.01947 -0.151904,-0.108946 -0.185538,-0.109091 -0.01928,-1.32e-4 0.0067,0.02632 0.05761,0.05879 z m 0.394517,0.22762 c 0.02075,0.03469 0.196793,0.124158 0.197123,0.100214 4.95e-4,-0.03438 -0.07749,-0.09398 -0.138782,-0.106056 -0.03207,-0.0062 -0.06155,-0.01296 -0.06549,-0.01479 -0.0039,-0.0019 -6.46e-4,0.0076 0.0072,0.02061 z m 0.451898,0.273486 c -2.83e-4,0.01233 0.243085,0.157274 0.264501,0.157583 0.04103,5.94e-4 -0.04398,-0.101854 -0.108855,-0.131208 -0.0716,-0.03236 -0.155353,-0.04658 -0.155647,-0.02636 z m 0.394129,0.239317 c -2.75e-4,0.01766 0.304652,0.186337 0.316329,0.174982 0.01775,-0.01718 -0.118044,-0.109684 -0.21631,-0.147384 -0.108298,-0.04154 -0.09983,-0.03921 -0.100009,-0.02763 z m 0.48698,0.287517 c -3.41e-4,0.01755 0.212044,0.138182 0.223539,0.12701 0.01232,-0.01202 -0.09692,-0.09641 -0.153483,-0.118606 -0.04442,-0.01737 -0.06988,-0.02049 -0.07005,-0.0084 z m 0.440545,0.264184 c -3.47e-4,0.01754 0.257235,0.162949 0.268716,0.151805 0.02566,-0.02498 -0.07798,-0.117441 -0.152581,-0.136152 -0.104071,-0.02607 -0.115979,-0.02767 -0.116156,-0.01561 z m 0.46555,0.286754 c 0.03471,0.03412 0.305166,0.184297 0.314874,0.174869 0.02669,-0.02593 -0.07039,-0.135292 -0.13855,-0.156135 -0.07509,-0.02295 -0.193419,-0.03552 -0.176329,-0.01873 z"
       id="path2827-0-8-8"
       inkscape:transform-center-x="-1.605283"
       inkscape:transform-center-y="1.7004144" /><path
       style="opacity:0.99;fill:#000000;fill-opacity:1;stroke:#000000;stroke-width:0.0233861;stroke-opacity:1"
       d="m 14.672821,14.902563 c 0.176379,0.663357 -0.01467,1.357625 -0.500365,1.818282 -0.122931,0.116578 -0.52578,0.345302 -0.691511,0.392474 -0.07001,0.01997 -0.249536,0.04462 -0.398976,0.05481 -0.241432,0.01647 -0.303838,0.0094 -0.55998,-0.0634 -0.323427,-0.09191 -0.492422,-0.17995 -0.712602,-0.371277 -0.312147,-0.271249 -0.49509,-0.588037 -0.603024,-1.044293 l -0.04583,-0.193612 -0.360445,-0.179631 -0.360445,-0.179632 -0.5061747,0.2689 c -0.278419,0.147854 -2.0273763,1.117147 -3.8866573,2.153835 -1.859284,1.036676 -3.6357,2.021784 -3.947627,2.189063 l -0.567145,0.304132 -0.05953,-0.130488 c -0.05362,-0.117708 -0.05922,-0.18083 -0.05654,-0.642819 0.004,-0.693853 0.05964,-5.552898 0.0661,-5.775416 l 0.0051,-0.17762 0.321321,-0.190849 C 2.166975,12.922174 5.407898,11.136218 6.154228,10.7402 l 0.479087,-0.254194 0.550348,0.417002 c 0.726203,0.550222 0.779213,0.595452 0.855217,0.729657 l 0.06349,0.112161 -0.765359,0.416313 c -1.326612,0.721525 -3.440007,1.895725 -3.592882,1.996313 l -0.146881,0.09657 -0.02183,0.307998 c -0.02918,0.411565 -0.116713,1.898031 -0.11825,2.007914 -6.41e-4,0.04796 0.0049,0.08836 0.0122,0.08976 0.0074,0.0013 1.379358,-0.7569 3.048793,-1.68509 1.669436,-0.92819 3.2176823,-1.783377 3.4406163,-1.900288 l 0.4052767,-0.212682 0.06134,0.03548 c 0.188624,0.108872 1.559077,0.860895 1.598589,0.877082 0.03142,0.01295 0.103663,-0.0036 0.218236,-0.04967 0.740555,-0.298177 1.5705,-0.09347 2.066134,0.50958 0.177849,0.21639 0.307104,0.453613 0.36421,0.66842 z m -3.786815,0.04337 c -0.09033,-0.05144 -0.285609,-0.102177 -0.319534,-0.08297 -0.0201,0.01138 0.192534,0.135382 0.454048,0.264805 l 0.149969,0.07414 0.01157,-0.06929 c 0.01151,-0.06903 0.01118,-0.0694 -0.09869,-0.10322 -0.06065,-0.01867 -0.14944,-0.05626 -0.19731,-0.08354 z m -0.877334,-0.04017 c -0.1000117,0.03889 -5.645369,3.126509 -7.915904,4.40749 l -0.419382,0.236576 0.0053,0.06122 0.0053,0.06122 0.437581,-0.232434 c 0.240666,-0.12783 1.802886,-0.992893 3.471532,-1.922474 1.668648,-0.929583 3.412522,-1.897173 3.875226,-2.150295 l 0.841273,-0.460228 -0.0865,-0.02551 c -0.06493,-0.01914 -0.118455,-0.01309 -0.214656,0.02435 z m -3.832171,-2.44215 c -0.801003,0.45683 -1.317473,0.755528 -1.147788,0.663637 1.077722,-0.583456 2.570361,-1.40596 2.605334,-1.435702 0.02286,-0.0193 0.03185,-0.04048 0.02011,-0.04693 -0.01218,-0.0068 -0.648551,0.346036 -1.477658,0.818992 z m -2.919467,1.968783 c -0.03259,0.05144 -0.05418,0.177811 -0.04107,0.239939 0.0051,0.02451 -0.01643,0.07304 -0.04803,0.107827 -0.06146,0.06775 -0.06811,0.141406 -0.02691,0.300866 0.0138,0.05351 0.01241,0.169653 -0.0031,0.258098 -0.01875,0.107016 -0.0168,0.198294 0.0059,0.272873 0.01874,0.06163 0.0273,0.171209 0.01899,0.243502 -0.01741,0.152618 -0.01413,0.288035 0.0078,0.325444 0.01885,0.03221 0.140142,-1.737 0.121624,-1.775101 -0.0045,-0.009 -0.02033,0.0029 -0.03528,0.02657 z M 1.793084,13.46189 c -0.03628,0.02054 -0.06391,0.127101 -0.04272,0.16455 0.01471,0.02598 0.05907,-0.0097 0.08824,-0.07092 0.03367,-0.07063 0.0078,-0.123831 -0.04556,-0.09362 z m -0.04906,0.415893 c -0.0041,0.03103 -0.0017,0.06595 0.0054,0.0776 0.0072,0.01155 0.01618,-0.0043 0.02036,-0.03524 0.0041,-0.03103 0.0017,-0.06594 -0.0054,-0.0776 -0.0072,-0.01155 -0.01618,0.0043 -0.02035,0.03524 z m 1.416449,2.545472 c -0.0053,0.0029 -0.0078,0.03161 -0.0057,0.0637 0.0036,0.05604 0.0041,0.05608 0.01308,9.17e-4 0.0097,-0.06036 0.0082,-0.07345 -0.0072,-0.06465 z M 1.738264,14.393276 c -0.01372,0.09588 -0.0054,0.204599 0.01487,0.193139 0.02501,-0.01417 0.03346,-0.182682 0.01109,-0.221287 -0.01316,-0.02272 -0.01961,-0.01568 -0.026,0.02814 z m 0.0018,0.469269 c -0.01674,0.0094 -0.0098,0.304535 0.0072,0.309257 0.03299,0.0091 0.04815,-0.05232 0.03878,-0.157227 -0.0091,-0.101212 -0.02758,-0.162475 -0.04602,-0.15203 z m -0.01081,0.568235 c -0.0037,0.0378 -0.0068,0.140942 -0.0068,0.22922 l -7.7e-5,0.160505 0.04188,-0.0728 c 0.0418,-0.07268 0.04233,-0.127084 0.0026,-0.282237 -0.02856,-0.111793 -0.03003,-0.113139 -0.03769,-0.03466 z m -0.01018,0.58587 c -0.0038,0.103911 0.0028,0.146239 0.02122,0.135801 0.01692,-0.0096 0.01724,-0.186137 3.71e-4,-0.215233 -0.0096,-0.0167 -0.01933,0.01908 -0.02162,0.07942 z m 0.003,0.455462 c -0.01945,0.03544 -0.0077,0.232559 0.01315,0.220743 0.02992,-0.01695 0.04193,-0.114361 0.02138,-0.173353 -0.01086,-0.03081 -0.01992,-0.05966 -0.02033,-0.06399 -3.32e-4,-0.0043 -0.0069,0.0033 -0.01415,0.01663 z m -0.0076,0.528156 c -0.01078,0.006 -0.01287,0.28924 -0.0023,0.307876 0.02022,0.03571 0.06566,-0.08942 0.05821,-0.16024 -0.0083,-0.07814 -0.03832,-0.157595 -0.05591,-0.14763 z m -0.0073,0.461038 c -0.01538,0.0087 -0.0068,0.357054 0.0089,0.361392 0.02379,0.0066 0.03499,-0.157291 0.01786,-0.261138 -0.01889,-0.114444 -0.01662,-0.105959 -0.0267,-0.100261 z m -0.002,0.565519 c -0.01532,0.0086 -0.01208,0.252806 0.0034,0.25708 0.0166,0.0046 0.03421,-0.132356 0.02478,-0.192381 -0.0075,-0.04711 -0.01763,-0.07066 -0.02815,-0.06469 z m -0.0053,0.513658 c -0.01531,0.0086 -0.01061,0.304319 0.0048,0.308594 0.03452,0.0095 0.06193,-0.12664 0.04038,-0.20047 -0.0301,-0.102978 -0.03474,-0.114062 -0.04523,-0.10812 z m -0.01217,0.546641 c -0.0119,0.0472 -0.0048,0.356467 0.0082,0.36008 0.03586,0.0099 0.08117,-0.129112 0.06471,-0.198461 -0.01815,-0.07639 -0.0671,-0.184853 -0.07295,-0.161621 z"
       id="path2827-0-8-8-3"
       inkscape:transform-center-x="-0.42974382"
       inkscape:transform-center-y="1.9853867" /><path
       style="opacity:0.99;fill:#000000;fill-opacity:1;stroke:#000000;stroke-width:0.0233861;stroke-opacity:1"
       d="m 18.471727,18.1459 c -0.517226,0.451254 -1.224481,0.586521 -1.852301,0.354256 -0.158889,-0.05879 -0.542035,-0.319181 -0.657561,-0.447032 -0.04884,-0.05399 -0.150254,-0.204163 -0.225406,-0.333733 -0.12142,-0.209327 -0.142643,-0.268437 -0.190471,-0.530393 -0.0604,-0.330764 -0.05607,-0.521266 0.01832,-0.803314 0.105473,-0.399859 0.308872,-0.703917 0.670529,-1.002286 l 0.153457,-0.126638 0.0019,-0.40272 0.0019,-0.402722 -0.46483,-0.335341 C 15.671728,13.931502 14.029582,12.790565 12.27824,11.580419 10.526908,10.370266 8.858444,9.2116796 8.570586,9.0057226 l -0.523369,-0.374477 0.09077,-0.111047 c 0.08192,-0.100093 0.136074,-0.133005 0.551735,-0.334667 0.62426,-0.302896 5.008157,-2.399288 5.210644,-2.491782 l 0.161606,-0.07388 0.313153,0.203974 c 0.349306,0.2276 3.383148,2.34633 4.068103,2.840978 l 0.439671,0.317534 -0.131019,0.677944 c -0.172861,0.8945584 -0.190024,0.9620954 -0.276855,1.0895624 l -0.07258,0.106504 -0.711568,-0.502755 C 16.457579,9.4821396 14.470622,8.1047566 14.312852,8.0120346 l -0.151518,-0.08912 -0.285964,0.116463 c -0.382128,0.155614 -1.754384,0.733677 -1.853645,0.780835 -0.04331,0.02061 -0.07711,0.04343 -0.07514,0.05059 0.0021,0.0072 1.28834,0.903165 2.858484,1.9909134 1.570144,1.08775 3.021263,2.099021 3.224623,2.247386 l 0.369826,0.269652 -0.0047,0.0707 c -0.01436,0.217316 -0.08369,1.779006 -0.08076,1.821604 0.0023,0.03391 0.04901,0.09141 0.140959,0.173851 0.594625,0.532685 0.77757,1.367696 0.455469,2.078733 -0.115577,0.255141 -0.27131,0.475887 -0.4388,0.622004 z m -1.711601,-3.378205 c 0.0062,-0.103762 -0.03449,-0.301369 -0.0667,-0.323322 -0.01909,-0.01301 -0.03642,0.232534 -0.03701,0.524321 l -3.05e-4,0.167295 0.06728,-0.02023 c 0.06702,-0.02016 0.0672,-0.02062 0.04901,-0.134134 -0.01,-0.06266 -0.01554,-0.158922 -0.01216,-0.213919 z m -0.351492,-0.80485 c -0.07907,-0.07254 -5.298606,-3.683752 -7.450773,-5.1549484 l -0.397492,-0.271753 -0.05258,0.0318 -0.05258,0.0318 0.401816,0.289909 c 0.220988,0.15945 1.68714,1.1788944 3.258183,2.2653204 1.571047,1.086429 3.20942,2.223557 3.640892,2.526867 l 0.784499,0.551464 -0.01532,-0.08887 c -0.01151,-0.0667 -0.04058,-0.112055 -0.116663,-0.181825 z m 0.498264,-4.5167874 c -0.763662,-0.516836 -1.259772,-0.848252 -1.10238,-0.736607 0.999497,0.709163 2.39673,1.6849824 2.438862,1.7032214 0.02741,0.01198 0.05039,0.01069 0.05099,-0.0027 7.2e-4,-0.01393 -0.596922,-0.4290034 -1.387465,-0.9639304 z m -3.055875,-1.749577 c -0.06055,-0.0065 -0.183456,0.02993 -0.233404,0.06914 -0.01973,0.01541 -0.07279,0.01752 -0.117954,0.0045 -0.08793,-0.02521 -0.156947,0.0014 -0.28181,0.108753 -0.04191,0.03601 -0.146724,0.08607 -0.232923,0.111225 -0.104292,0.03045 -0.185321,0.07252 -0.242204,0.125825 -0.04701,0.04404 -0.141542,0.100117 -0.210071,0.124596 -0.144612,0.05179 -0.264653,0.114552 -0.288528,0.150751 -0.02057,0.03114 1.620262,-0.641529 1.646265,-0.674973 0.0061,-0.008 -0.01158,-0.01696 -0.03942,-0.01992 z m 0.224047,-1.742078 c -0.03445,-0.02348 -0.142258,-0.0012 -0.166496,0.03436 -0.01681,0.02467 0.03479,0.04871 0.102603,0.04784 0.07824,-9.91e-4 0.114541,-0.04771 0.06387,-0.08223 z m -0.39479,0.139691 c -0.02965,0.01003 -0.05992,0.02761 -0.06724,0.03912 -0.0071,0.01156 0.011,0.01261 0.04061,0.0027 0.02965,-0.01003 0.05991,-0.0276 0.06724,-0.03913 0.0071,-0.01156 -0.011,-0.01261 -0.0406,-0.0027 z m -1.65802,2.395147 c -0.005,-0.0034 -0.0318,0.007 -0.05967,0.02303 -0.04868,0.02798 -0.0485,0.02845 0.005,0.01214 0.05844,-0.01796 0.06952,-0.02509 0.05482,-0.03502 z m 1.192998,-2.172614 c -0.09208,0.03004 -0.185943,0.08553 -0.166708,0.09866 0.02376,0.01618 0.178674,-0.05067 0.203428,-0.08779 0.01457,-0.02184 0.0054,-0.02452 -0.03673,-0.0109 z m -0.420212,0.208898 c -0.01583,-0.01086 -0.277545,0.125726 -0.274271,0.143063 0.0064,0.03362 0.0682,0.02009 0.158186,-0.03466 0.08678,-0.05287 0.133583,-0.09651 0.116067,-0.10844 z m -0.514571,0.2413 c -0.03554,0.01338 -0.12945,0.05616 -0.20865,0.09515 l -0.144032,0.07083 0.08382,0.0054 c 0.08367,0.0054 0.132712,-0.01816 0.254359,-0.122334 0.08768,-0.075 0.08824,-0.07692 0.01445,-0.04912 z m -0.530113,0.249654 c -0.0949,0.04249 -0.129963,0.06711 -0.112461,0.07902 0.01609,0.01094 0.174608,-0.06676 0.193261,-0.09474 0.01074,-0.01599 -0.02566,-0.0089 -0.0808,0.01569 z m -0.407295,0.203875 c -0.04039,-0.0018 -0.212043,0.09582 -0.192233,0.109303 0.02842,0.01936 0.121121,-0.0129 0.164968,-0.05739 0.02285,-0.02335 0.04472,-0.04423 0.04843,-0.04651 0.0037,-0.0022 -0.006,-0.0047 -0.02117,-0.0054 z m -0.477196,0.226476 c -0.01014,-0.0071 -0.265178,0.116214 -0.277229,0.13393 -0.02311,0.03391 0.109227,0.01941 0.169473,-0.01856 0.06644,-0.04197 0.124461,-0.103991 0.107751,-0.115371 z m -0.416847,0.197098 c -0.01459,-0.01 -0.323336,0.151614 -0.320294,0.167616 0.0045,0.02426 0.156571,-0.03809 0.242171,-0.09933 0.09433,-0.0675 0.08772,-0.06171 0.07816,-0.06825 z m -0.5082417,0.248003 c -0.01448,-0.0099 -0.232143,0.100834 -0.22914,0.116607 0.0032,0.01693 0.133856,-0.02777 0.183542,-0.06274 0.03895,-0.02754 0.0556,-0.04703 0.0456,-0.05383 z m -0.463173,0.222135 c -0.01447,-0.0099 -0.2777073,0.124903 -0.2747363,0.140616 0.0067,0.03517 0.140971,-4.18e-4 0.197689,-0.05232 0.07909,-0.07249 0.08698,-0.08155 0.07702,-0.08833 z m -0.4957973,0.23054 c -0.0476,0.01018 -0.321927,0.153151 -0.319426,0.16641 0.0069,0.03655 0.151687,0.01579 0.206634,-0.02961 0.06052,-0.05002 0.136203,-0.141851 0.112776,-0.136838 z"
       id="path2827-0-8-8-3-8"
       inkscape:transform-center-x="3.2630484"
       inkscape:transform-center-y="0.98862827" /><circle
       id="path2829"
       style="fill:#000000;stroke:#000000;stroke-width:0.264583"
       cx="19.542089"
       cy="19.311157"
       r="0.0015575017" /><circle
       id="path2831"
       style="fill:#000000;stroke:#000000;stroke-width:0.264583"
       cx="20.524305"
       cy="18.539412"
       r="0.0031150035" /><path
       style="opacity:0.99;fill:#000000;fill-opacity:1;stroke:#000000;stroke-width:0.264583;stroke-opacity:1"
       d="m 19.436853,19.369618 1.22777,-0.689888"
       id="path2833" /><path
       style="opacity:0.99;fill:#000000;fill-opacity:1;stroke:#000000;stroke-width:0.264583;stroke-opacity:1"
       d="m 20.290446,18.738195 0.04677,-6.220698"
       id="path2835" /><path
       style="opacity:0.99;fill:#000000;fill-opacity:1;stroke:#000000;stroke-width:0.264583;stroke-opacity:1"
       d="m 20.337217,8.9043456 0.01169,4.0457924"
       id="path2837" /><path
       style="opacity:0.99;fill:#000000;fill-opacity:1;stroke:#000000;stroke-width:0.264583;stroke-opacity:1"
       d="M 24.312851,12.961833 22.336729,11.593746"
       id="path2839" /><path
       style="opacity:0.99;fill:#000000;fill-opacity:1;stroke:#000000;stroke-width:0.264583;stroke-opacity:1"
       d="M 25.622473,11.991308 20.512614,8.9043456"
       id="path2841" /><path
       style="opacity:0.99;fill:#000000;fill-opacity:1;stroke:#000000;stroke-width:0.264583;stroke-opacity:1"
       d="m 24.324546,17.978148 0.07016,-2.560778"
       id="path2843" /><path
       style="opacity:0.99;fill:#000000;fill-opacity:1;stroke:#000000;stroke-width:0.264583;stroke-opacity:1"
       d="M 2.376705,19.170836 1.62835,19.591786"
       id="path5133" /><path
       style="opacity:0.99;fill:#000000;fill-opacity:1;stroke:#000000;stroke-width:0.264583;stroke-opacity:1"
       d="M 10.58522,14.61055 1.885599,19.521629"
       id="path5135" /><path
       style="opacity:0.99;fill:#000000;fill-opacity:1;stroke:#000000;stroke-width:0.264583;stroke-opacity:1"
       d="M 11.660982,15.288748 10.444904,14.797639"
       id="path5137" /><path
       style="opacity:0.99;fill:#000000;fill-opacity:1;stroke:#000000;stroke-width:0.264583;stroke-opacity:1"
       d="m 3.101674,16.949159 0.18709,-3.437755"
       id="path5139" /><path
       style="opacity:0.99;fill:#000000;fill-opacity:1;stroke:#000000;stroke-width:0.264583;stroke-opacity:1"
       d="m 1.675123,19.521629 0.11693,-1.870887"
       id="path5141" /><path
       style="opacity:0.99;fill:#000000;fill-opacity:1;stroke:#000000;stroke-width:0.264583;stroke-opacity:1"
       d="m 10.398131,9.0680486 4.466743,-1.6838"
       id="path5143" /><path
       style="opacity:0.99;fill:#000000;fill-opacity:1;stroke:#000000;stroke-width:0.264583;stroke-opacity:1"
       d="M 17.086551,14.49362 9.111899,8.9978886"
       id="path5145" /><path
       style="opacity:0.99;fill:#000000;fill-opacity:1;stroke:#000000;stroke-width:0.264583;stroke-opacity:1"
       d="m 16.735762,15.686311 -0.11693,-1.800728"
       id="path5147" /><path
       style="opacity:0.99;fill:#000000;fill-opacity:1;stroke:#000000;stroke-width:0.264583;stroke-opacity:1"
       d="m 17.834907,24.736725 9.003641,-4.677217"
       id="path5149" /><path
       style="opacity:0.99;fill:#000000;fill-opacity:1;stroke:#000000;stroke-width:0.264583;stroke-opacity:1"
       d="M 19.214685,25.110901 16.759148,24.058529"
       id="path5151" /><path
       style="opacity:0.99;fill:#000000;fill-opacity:1;stroke:#000000;stroke-width:0.264583;stroke-opacity:1"
       d="m 25.131364,25.765713 0.350792,-3.063578"
       id="path5153" /><path
       style="opacity:0.99;fill:#000000;fill-opacity:1;stroke:#000000;stroke-width:0.264583;stroke-opacity:1"
       d="M 20.851712,27.800301 24.92089,25.742327"
       id="path5155" /><path
       style="opacity:0.99;fill:#000000;fill-opacity:1;stroke:#000000;stroke-width:0.264583;stroke-opacity:1"
       d="m 26.628074,26.163276 0.280633,-5.238482"
       id="path5157" /><path
       style="opacity:0.99;fill:#000000;fill-opacity:1;stroke:#000000;stroke-width:0.264583;stroke-opacity:1"
       d="M 11.614209,25.414921 20.38399,30.86388"
       id="path5159" /><path
       style="opacity:0.99;fill:#000000;fill-opacity:1;stroke:#000000;stroke-width:0.264583;stroke-opacity:1"
       d="m 11.871455,23.941597 0.07016,1.8475"
       id="path5161" /><path
       style="opacity:0.99;fill:#000000;fill-opacity:1;stroke:#000000;stroke-width:0.264583;stroke-opacity:1"
       d="M 14.420538,32.220271 17.554274,30.98081"
       id="path5163" /><path
       style="opacity:0.99;fill:#000000;fill-opacity:1;stroke:#000000;stroke-width:0.264583;stroke-opacity:1"
       d="M 14.958418,33.763753 20.360603,30.86388"
       id="path5165" /><path
       style="opacity:0.99;fill:#000000;fill-opacity:1;stroke:#000000;stroke-width:0.264583;stroke-opacity:1"
       d="M 12.245632,30.653404 10.65538,29.554258"
       id="path5167" /><path
       style="opacity:0.99;fill:#000000;fill-opacity:1;stroke:#000000;stroke-width:0.264583;stroke-opacity:1"
       d="M 6.00155,27.964004 3.8968,26.677769"
       id="path5169" /><path
       style="opacity:0.99;fill:#000000;fill-opacity:1;stroke:#000000;stroke-width:0.264583;stroke-opacity:1"
       d="M 7.732118,30.746947 7.989364,20.012735"
       id="path5171" /><path
       style="opacity:0.99;fill:#000000;fill-opacity:1;stroke:#000000;stroke-width:0.264583;stroke-opacity:1"
       d="M 9.5094623,19.638559 7.615188,21.088497"
       id="path5173" /><path
       style="opacity:0.99;fill:#000000;fill-opacity:1;stroke:#000000;stroke-width:0.264583;stroke-opacity:1"
       d="M 7.778891,30.653404 2.446865,27.449511"
       id="path5175" /><path
       style="opacity:0.99;fill:#000000;fill-opacity:1;stroke:#000000;stroke-width:0.264583;stroke-opacity:1"
       d="M 3.873416,25.672167 3.920186,21.53283"
       id="path5177" /><path
       style="opacity:0.99;fill:#000000;fill-opacity:1;stroke:#000000;stroke-width:0.264583;stroke-opacity:1"
       d="m 1.745282,14.306533 0.04677,-0.935445"
       id="path5179" /><path
       style="opacity:0.99;fill:#000000;fill-opacity:1;stroke:#000000;stroke-width:0.220009;stroke-opacity:1"
       d="M 31.146782,2.6540582e-4 31.053218,39.999743"
       id="path6633" /><text
       xml:space="preserve"
       style="font-style:normal;font-variant:normal;font-weight:normal;font-stretch:normal;font-size:23.6153px;font-family:'Arial Narrow';-inkscape-font-specification:'Arial Narrow';opacity:0.99;fill:#000000;fill-opacity:1;stroke:#000000;stroke-width:0.31241;stroke-opacity:1"
       x="32.36832"
       y="22.757076"
       id="text7415"
       transform="scale(1.0900112,0.91742176)"><tspan
         sodipodi:role="line"
         id="tspan7413"
         style="font-style:normal;font-variant:normal;font-weight:normal;font-stretch:normal;font-size:23.6153px;font-family:'Arial Narrow';-inkscape-font-specification:'Arial Narrow';stroke-width:0.31241"
         x="32.36832"
         y="22.757076">MyHub</tspan></text><text
       xml:space="preserve"
       style="font-style:normal;font-variant:normal;font-weight:normal;font-stretch:normal;font-size:6.80641px;font-family:'Arial Narrow';-inkscape-font-specification:'Arial Narrow';opacity:0.99;fill:#000000;fill-opacity:1;stroke:#000000;stroke-width:0.180086;stroke-opacity:1"
       x="34.19923"
       y="37.255257"
       id="text8921"
       transform="scale(1.0760383,0.92933495)"><tspan
         sodipodi:role="line"
         id="tspan8919"
         style="font-size:6.80641px;stroke-width:0.180086"
         x="34.19923"
         y="37.255257">THE ONLY PLACE</tspan></text></g></svg>
